<svg t="1753850307142" class="icon" viewBox="0 0 1024 1024" version="1.1" xmlns="http://www.w3.org/2000/svg" p-id="7486" width="48" height="48"><path d="M85.333333 170.666667m85.333334 0l682.666666 0q85.333333 0 85.333334 85.333333l0 512q0 85.333333-85.333334 85.333333l-682.666666 0q-85.333333 0-85.333334-85.333333l0-512q0-85.333333 85.333334-85.333333Z" fill="#1296db" opacity=".3" p-id="7487"></path><path d="M170.666667 853.333333l277.333333-384 277.333333 384z" fill="#1296db" opacity=".3" p-id="7488"></path><path d="M469.333333 853.333333l192-256 192 256z" fill="#1296db" p-id="7489"></path><path d="M789.333333 362.666667m-64 0a64 64 0 1 0 128 0 64 64 0 1 0-128 0Z" fill="#1296db" opacity=".3" p-id="7490"></path></svg>