<svg t="1753775570322" class="icon" viewBox="0 0 1024 1024" version="1.1" xmlns="http://www.w3.org/2000/svg" p-id="4643" width="48" height="48"><path d="M341.333333 213.333333h128v597.333334H341.333333v85.333333h341.333334v-85.333333h-128V213.333333h128V128H341.333333v85.333333zM85.333333 298.666667a42.666667 42.666667 0 0 0-42.666666 42.666666v341.333334a42.666667 42.666667 0 0 0 42.666666 42.666666h256v-85.333333H128V384h213.333333V298.666667H85.333333z m597.333334 85.333333h213.333333v256h-213.333333v85.333333h256a42.666667 42.666667 0 0 0 42.666666-42.666666V341.333333a42.666667 42.666667 0 0 0-42.666666-42.666666h-256v85.333333z" p-id="4644" fill="#ffffff"></path></svg>