<svg t="1753776386844" class="icon" viewBox="0 0 1024 1024" version="1.1" xmlns="http://www.w3.org/2000/svg" p-id="12521" width="48" height="48"><path d="M102.4 51.2h307.2a51.2 51.2 0 0 1 51.2 51.2v307.2a51.2 51.2 0 0 1-51.2 51.2H102.4a51.2 51.2 0 0 1-51.2-51.2V102.4a51.2 51.2 0 0 1 51.2-51.2z m0 512h307.2a51.2 51.2 0 0 1 51.2 51.2v307.2a51.2 51.2 0 0 1-51.2 51.2H102.4a51.2 51.2 0 0 1-51.2-51.2v-307.2a51.2 51.2 0 0 1 51.2-51.2z m512 102.4a51.2 51.2 0 0 1 51.2 51.2v204.8a51.2 51.2 0 0 1-102.4 0v-204.8a51.2 51.2 0 0 1 51.2-51.2z m153.6 102.4a51.2 51.2 0 0 1 51.2 51.2v102.4a51.2 51.2 0 0 1-102.4 0v-102.4a51.2 51.2 0 0 1 51.2-51.2z m153.6-204.8a51.2 51.2 0 0 1 51.2 51.2v307.2a51.2 51.2 0 0 1-102.4 0v-307.2a51.2 51.2 0 0 1 51.2-51.2zM614.4 51.2h307.2a51.2 51.2 0 0 1 51.2 51.2v307.2a51.2 51.2 0 0 1-51.2 51.2h-307.2a51.2 51.2 0 0 1-51.2-51.2V102.4a51.2 51.2 0 0 1 51.2-51.2z" fill="#1677ff" p-id="12522"></path></svg>